<svg version="1.1" id="Layer_1" xmlns="http://www.w3.org/2000/svg" xmlns:xlink="http://www.w3.org/1999/xlink" x="0px" y="0px"
	 width="100%" viewBox="0 0 714 698" enable-background="new 0 0 714 698" xml:space="preserve">
<path fill="#EA5251" opacity="1.000000" stroke="none" 
	d="
M715.000000,672.000000 
	C715.000000,672.444336 715.000000,672.888672 714.674377,673.806274 
	C709.907227,688.076599 701.154541,696.820312 685.760193,698.202026 
	C683.528259,698.029053 681.735840,697.948120 679.853516,697.751038 
	C679.470154,697.476746 679.234436,697.554260 678.587219,697.921997 
	C657.390503,697.950745 636.663147,697.924805 615.709717,697.682495 
	C614.342957,697.611877 613.202332,697.757568 611.591797,697.957581 
	C590.730286,697.982422 570.338684,697.952881 549.626038,697.670776 
	C542.892395,697.578735 536.479675,697.739197 529.596558,697.950684 
	C521.398376,697.971741 513.670532,697.941711 505.676575,697.678711 
	C503.622925,697.606506 501.835449,697.767395 499.578613,697.979248 
	C480.719025,697.989014 462.328735,697.947754 443.672211,697.675781 
	C441.623566,697.600220 439.841156,697.755432 437.605469,697.962830 
	C434.417297,697.984192 431.682404,697.953308 428.642761,697.675659 
	C425.243591,697.591980 422.149200,697.755066 418.584961,697.968506 
	C387.332642,698.036316 356.550110,698.080505 325.767578,698.063904 
	C290.494232,698.044861 255.220886,697.971924 219.634583,697.672058 
	C215.566483,697.586609 211.811340,697.751526 207.593140,697.965637 
	C203.399078,697.978271 199.668076,697.941772 195.646179,697.667236 
	C192.922836,697.590515 190.490402,697.751892 187.672119,697.963501 
	C186.510635,697.979187 185.734985,697.944580 184.867035,697.786865 
	C184.468277,697.494568 184.223602,697.576477 183.572052,697.962402 
	C141.382828,697.978882 99.662254,697.942322 57.716171,697.686890 
	C56.346832,697.613647 55.203003,697.759277 53.589348,697.957764 
	C45.032005,698.070557 36.944485,698.130432 28.462952,698.140259 
	C15.491183,696.260803 7.353902,689.029724 2.805191,677.387024 
	C2.342827,676.203552 1.608263,675.126465 1.000003,674.000000 
	C1.000000,673.555664 1.000000,673.111328 1.279442,672.024048 
	C1.705811,669.904724 1.981341,668.428345 1.981457,666.951904 
	C1.998169,455.706696 1.997269,244.461472 1.951471,33.216259 
	C1.951094,31.477438 1.330835,29.738750 1.000000,28.000000 
	C1.000000,27.555664 1.000000,27.111328 1.316541,26.188026 
	C5.271924,15.581337 11.102249,7.296503 21.835794,3.983902 
	C26.344971,2.592274 31.261221,2.519660 36.447800,1.919648 
	C215.796722,1.998723 394.690277,2.012613 573.583801,2.006680 
	C611.058105,2.005438 648.532410,1.931168 686.379639,1.990846 
	C700.913147,4.763264 710.688599,12.269285 714.027161,27.144672 
	C714.007385,27.635265 714.006042,27.831730 713.969727,28.308475 
	C713.900757,28.773973 713.866821,28.959192 713.595337,29.463074 
	C713.238586,31.265394 713.015015,32.749046 713.014954,34.232712 
	C713.000610,244.670258 713.000549,455.107788 713.037781,665.545349 
	C713.038086,667.312073 713.553162,669.078674 713.950806,671.106323 
	C714.382446,671.578247 714.691223,671.789124 715.000000,672.000000 
M611.253235,455.248779 
	C605.476379,450.632538 599.699524,446.016296 593.635620,441.170715 
	C613.433105,425.407043 623.943665,404.886993 627.247192,381.034393 
	C629.316040,366.096832 629.114197,350.832123 629.640198,335.704102 
	C629.746765,332.639160 630.276733,330.999756 633.390320,329.840912 
	C638.682434,327.871185 643.813660,325.405609 648.854919,322.838959 
	C659.665222,317.335052 666.963989,308.859833 667.664673,296.456909 
	C668.311584,285.004211 668.301758,273.445404 667.547852,262.001404 
	C666.740051,249.738373 659.829224,240.965836 648.936523,235.445679 
	C643.889099,232.887772 638.786499,230.363693 633.500366,228.380280 
	C630.404358,227.218643 629.694519,225.607422 629.684998,222.525131 
	C629.651978,211.868469 629.673401,201.185776 628.946045,190.562851 
	C627.711853,172.536255 623.212463,155.404938 612.919006,140.208221 
	C600.080994,121.254990 581.917664,109.704254 560.264526,103.656891 
	C531.390015,95.592712 502.574829,95.638428 474.584381,107.395508 
	C466.244812,110.898445 458.648193,116.170135 450.508789,120.745163 
	C443.032837,110.270409 435.594116,99.436707 427.718262,88.930725 
	C420.130981,78.809746 412.678741,68.484436 404.111084,59.226208 
	C391.898468,46.029209 378.041199,44.104836 361.951294,52.197956 
	C359.119965,53.622086 357.149384,53.746105 354.223633,52.316956 
	C337.065063,43.935390 323.645691,46.620712 310.578125,60.678623 
	C309.104523,62.263897 307.643402,63.877338 306.339447,65.600967 
	C298.100006,76.492233 289.846741,87.373947 281.718689,98.348183 
	C276.189880,105.813034 270.857697,113.423515 265.982300,120.210526 
	C255.697357,114.990791 246.176300,108.964302 235.838318,105.154716 
	C212.575012,96.582108 188.484940,96.374725 164.425034,101.513802 
	C139.647858,106.806084 118.573448,118.342094 103.758148,139.654037 
	C92.433075,155.945251 88.070908,174.452530 87.108994,193.855392 
	C86.566765,204.792618 87.011253,215.778778 87.011253,226.251633 
	C79.963882,229.514053 73.663300,232.165512 67.608116,235.292221 
	C56.875240,240.834335 49.511414,249.282440 48.764629,261.691620 
	C48.076130,273.132263 48.046585,284.668427 48.642399,296.114868 
	C49.241230,307.619171 55.345947,316.147430 65.639778,321.441193 
	C71.115074,324.256927 76.555870,327.280640 82.323105,329.339844 
	C86.375870,330.786926 86.770271,332.935669 86.798248,336.686401 
	C86.893715,349.488922 86.754204,362.363800 88.065605,375.070557 
	C90.173309,395.493286 96.796387,414.374390 110.844551,430.000397 
	C114.387749,433.941559 117.989914,437.829712 121.968544,442.183899 
	C122.058136,442.139160 121.395500,442.348511 120.877403,442.746185 
	C99.079788,459.477966 77.355164,476.306000 55.439754,492.881836 
	C52.380417,495.195770 50.863163,497.176575 52.065636,501.024597 
	C53.802311,506.582153 54.887363,512.356140 56.816441,517.838623 
	C67.117760,547.115173 86.075554,569.946777 110.642212,588.245667 
	C146.527008,614.975037 187.238663,630.035461 231.147491,637.277649 
	C237.069794,638.254517 240.969864,636.896484 245.177521,632.661926 
	C276.770355,600.867310 308.582062,569.289612 340.396820,537.716187 
	C352.576996,525.628357 362.979279,525.334412 375.063812,537.234253 
	C406.173798,567.868774 437.296387,598.498840 467.858337,629.675293 
	C474.669342,636.623108 481.114960,638.243835 490.260681,636.549438 
	C511.325928,632.646729 531.699707,626.685303 551.470276,618.551270 
	C579.798584,606.896423 605.708496,591.408447 627.066650,569.181763 
	C645.925964,549.555420 659.008667,526.678345 664.207581,499.640656 
	C664.733826,496.903931 664.013611,495.520233 661.843994,493.883606 
	C645.094666,481.248596 628.469971,468.448364 611.253235,455.248779 
z"/>
<path fill="#F1A3A2" opacity="1.000000" stroke="none" 
	d="
M505.942749,697.911743 
	C513.670532,697.941711 521.398376,697.971741 530.057312,697.990967 
	C537.307983,697.961182 543.627502,697.942261 549.947021,697.923340 
	C570.338684,697.952881 590.730286,697.982422 611.977905,697.995056 
	C613.867920,697.951782 614.901855,697.925354 615.935852,697.898865 
	C636.663147,697.924805 657.390503,697.950745 678.808838,697.945190 
	C679.499878,697.913818 679.943359,697.867188 679.943359,697.867188 
	C681.735840,697.948120 683.528259,698.029053 685.747070,698.388916 
	C686.173340,698.667725 686.000000,699.000000 686.000000,699.000000 
	C467.312439,699.000000 248.624878,699.000000 29.428835,698.798340 
	C28.920355,698.596680 28.856968,698.190369 28.856968,698.190369 
	C36.944485,698.130432 45.032005,698.070557 53.976307,697.994629 
	C55.869286,697.954346 56.905483,697.930054 57.941681,697.905762 
	C99.662254,697.942322 141.382828,697.978882 183.801620,697.985352 
	C184.499847,697.955261 184.959335,697.910034 184.959335,697.910034 
	C185.734985,697.944580 186.510635,697.979187 188.107849,697.999512 
	C191.265289,697.958618 193.601166,697.931946 195.937057,697.905273 
	C199.668076,697.941772 203.399078,697.978271 208.046844,698.004639 
	C212.624893,697.970459 216.286224,697.946411 219.947540,697.922424 
	C255.220886,697.971924 290.494232,698.044861 325.767578,698.063904 
	C356.550110,698.080505 387.332642,698.036316 419.031921,698.006531 
	C422.948273,697.970215 425.947906,697.946350 428.947510,697.922485 
	C431.682404,697.953308 434.417297,697.984192 438.023804,697.999634 
	C440.576447,697.958313 442.257446,697.932434 443.938477,697.906555 
	C462.328735,697.947754 480.719025,697.989014 499.998260,698.015015 
	C502.572418,697.970520 504.257568,697.941162 505.942749,697.911743 
z"/>
<path fill="#FCF2F3" opacity="1.000000" stroke="none" 
	d="
M686.006714,1.890551 
	C648.532410,1.931168 611.058105,2.005438 573.583801,2.006680 
	C394.690277,2.012613 215.796722,1.998723 36.449707,1.707795 
	C35.996223,1.423707 36.000000,1.000000 36.000000,1.000000 
	C252.360184,1.000000 468.720367,1.000000 685.541931,1.222638 
	C686.003296,1.445276 686.006714,1.890551 686.006714,1.890551 
z"/>
<path fill="#EC8485" opacity="1.000000" stroke="none" 
	d="
M715.000000,671.540283 
	C714.691223,671.789124 714.382446,671.578247 713.987671,670.654419 
	C713.923340,667.275513 713.963867,664.609436 713.964111,661.943420 
	C713.980713,489.663391 714.004883,317.383362 713.999207,145.103348 
	C713.997986,106.450371 713.891113,67.797386 713.832825,29.144409 
	C713.866821,28.959192 713.900757,28.773973 714.218018,28.282837 
	C714.501221,27.976915 715.000000,28.000000 715.000000,28.000000 
	C715.000000,242.360184 715.000000,456.720367 715.000000,671.540283 
z"/>
<path fill="#E56869" opacity="1.000000" stroke="none" 
	d="
M1.000000,28.468658 
	C1.330835,29.738750 1.951094,31.477438 1.951471,33.216259 
	C1.997269,244.461472 1.998169,455.706696 1.981457,666.951904 
	C1.981341,668.428345 1.705811,669.904724 1.279442,671.690552 
	C1.000000,457.645782 1.000000,243.291550 1.000000,28.468658 
z"/>
<path fill="#FDFAFA" opacity="1.000000" stroke="none" 
	d="
M35.531342,1.000000 
	C36.000000,1.000000 35.996223,1.423707 35.994316,1.635560 
	C31.261221,2.519660 26.344971,2.592274 21.835794,3.983902 
	C11.102249,7.296503 5.271924,15.581337 1.316541,25.854530 
	C1.000000,17.727917 1.000000,9.455832 1.000000,1.000000 
	C12.353688,1.000000 23.708185,1.000000 35.531342,1.000000 
z"/>
<path fill="#FEFBFB" opacity="1.000000" stroke="none" 
	d="
M686.379639,1.990846 
	C686.006714,1.890551 686.003296,1.445276 686.001648,1.222638 
	C695.589111,1.000000 705.178162,1.000000 715.000000,1.000000 
	C715.000000,9.352786 715.000000,17.707727 714.758667,26.511299 
	C714.517395,26.959932 714.045654,26.850548 714.045654,26.850548 
	C710.688599,12.269285 700.913147,4.763264 686.379639,1.990846 
z"/>
<path fill="#FEFAFA" opacity="1.000000" stroke="none" 
	d="
M686.468628,699.000000 
	C686.000000,699.000000 686.173340,698.667725 686.186523,698.480835 
	C701.154541,696.820312 709.907227,688.076599 714.674377,674.139771 
	C715.000000,682.265198 715.000000,690.530457 715.000000,699.000000 
	C705.646790,699.000000 696.292053,699.000000 686.468628,699.000000 
z"/>
<path fill="#FEFAFA" opacity="1.000000" stroke="none" 
	d="
M28.462952,698.140259 
	C28.856968,698.190369 28.920355,698.596680 28.960178,698.798340 
	C19.744423,699.000000 10.488846,699.000000 1.000000,699.000000 
	C1.000000,690.980652 1.000000,682.958984 1.000003,674.468689 
	C1.608263,675.126465 2.342827,676.203552 2.805191,677.387024 
	C7.353902,689.029724 15.491183,696.260803 28.462952,698.140259 
z"/>
<path fill="#E1403E" opacity="1.000000" stroke="none" 
	d="
M714.027161,27.144672 
	C714.045654,26.850548 714.517395,26.959932 714.758667,26.979965 
	C715.000000,27.000000 715.000000,27.500000 715.000000,27.750000 
	C715.000000,28.000000 714.501221,27.976915 714.252991,28.002556 
	C714.006042,27.831730 714.007385,27.635265 714.027161,27.144672 
z"/>
<path fill="#20252C" opacity="1.000000" stroke="none" 
	d="
M611.529907,455.474060 
	C628.469971,468.448364 645.094666,481.248596 661.843994,493.883606 
	C664.013611,495.520233 664.733826,496.903931 664.207581,499.640656 
	C659.008667,526.678345 645.925964,549.555420 627.066650,569.181763 
	C605.708496,591.408447 579.798584,606.896423 551.470276,618.551270 
	C531.699707,626.685303 511.325928,632.646729 490.260681,636.549438 
	C481.114960,638.243835 474.669342,636.623108 467.858337,629.675293 
	C437.296387,598.498840 406.173798,567.868774 375.063812,537.234253 
	C362.979279,525.334412 352.576996,525.628357 340.396820,537.716187 
	C308.582062,569.289612 276.770355,600.867310 245.177521,632.661926 
	C240.969864,636.896484 237.069794,638.254517 231.147491,637.277649 
	C187.238663,630.035461 146.527008,614.975037 110.642212,588.245667 
	C86.075554,569.946777 67.117760,547.115173 56.816441,517.838623 
	C54.887363,512.356140 53.802311,506.582153 52.065636,501.024597 
	C50.863163,497.176575 52.380417,495.195770 55.439754,492.881836 
	C77.355164,476.306000 99.079788,459.477966 120.877403,442.746185 
	C121.395500,442.348511 122.058136,442.139160 121.968544,442.183899 
	C117.989914,437.829712 114.387749,433.941559 110.844551,430.000397 
	C96.796387,414.374390 90.173309,395.493286 88.065605,375.070557 
	C86.754204,362.363800 86.893715,349.488922 86.798248,336.686401 
	C86.770271,332.935669 86.375870,330.786926 82.323105,329.339844 
	C76.555870,327.280640 71.115074,324.256927 65.639778,321.441193 
	C55.345947,316.147430 49.241230,307.619171 48.642399,296.114868 
	C48.046585,284.668427 48.076130,273.132263 48.764629,261.691620 
	C49.511414,249.282440 56.875240,240.834335 67.608116,235.292221 
	C73.663300,232.165512 79.963882,229.514053 87.011253,226.251633 
	C87.011253,215.778778 86.566765,204.792618 87.108994,193.855392 
	C88.070908,174.452530 92.433075,155.945251 103.758148,139.654037 
	C118.573448,118.342094 139.647858,106.806084 164.425034,101.513802 
	C188.484940,96.374725 212.575012,96.582108 235.838318,105.154716 
	C246.176300,108.964302 255.697357,114.990791 265.982300,120.210526 
	C270.857697,113.423515 276.189880,105.813034 281.718689,98.348183 
	C289.846741,87.373947 298.100006,76.492233 306.339447,65.600967 
	C307.643402,63.877338 309.104523,62.263897 310.578125,60.678623 
	C323.645691,46.620712 337.065063,43.935390 354.223633,52.316956 
	C357.149384,53.746105 359.119965,53.622086 361.951294,52.197956 
	C378.041199,44.104836 391.898468,46.029209 404.111084,59.226208 
	C412.678741,68.484436 420.130981,78.809746 427.718262,88.930725 
	C435.594116,99.436707 443.032837,110.270409 450.508789,120.745163 
	C458.648193,116.170135 466.244812,110.898445 474.584381,107.395508 
	C502.574829,95.638428 531.390015,95.592712 560.264526,103.656891 
	C581.917664,109.704254 600.080994,121.254990 612.919006,140.208221 
	C623.212463,155.404938 627.711853,172.536255 628.946045,190.562851 
	C629.673401,201.185776 629.651978,211.868469 629.684998,222.525131 
	C629.694519,225.607422 630.404358,227.218643 633.500366,228.380280 
	C638.786499,230.363693 643.889099,232.887772 648.936523,235.445679 
	C659.829224,240.965836 666.740051,249.738373 667.547852,262.001404 
	C668.301758,273.445404 668.311584,285.004211 667.664673,296.456909 
	C666.963989,308.859833 659.665222,317.335052 648.854919,322.838959 
	C643.813660,325.405609 638.682434,327.871185 633.390320,329.840912 
	C630.276733,330.999756 629.746765,332.639160 629.640198,335.704102 
	C629.114197,350.832123 629.316040,366.096832 627.247192,381.034393 
	C623.943665,404.886993 613.433105,425.407043 593.635620,441.170715 
	C599.699524,446.016296 605.476379,450.632538 611.529907,455.474060 
M345.834412,429.731750 
	C346.218079,427.867462 346.928406,426.004364 346.935333,424.138672 
	C347.014130,402.976288 346.855652,381.812195 347.068756,360.651672 
	C347.128357,354.735168 348.283295,348.835754 348.767120,342.914734 
	C348.982758,340.275879 348.773315,337.602936 348.770142,334.945465 
	C348.761047,327.341522 348.767487,319.737579 348.748260,312.133667 
	C348.742828,309.987488 348.848999,307.819214 348.585480,305.700714 
	C348.204254,302.636108 347.130646,299.616821 347.060760,296.561951 
	C346.851166,287.401825 346.726471,278.224396 347.059753,269.071594 
	C347.378998,260.303558 349.362732,251.476181 348.689056,242.824860 
	C347.980927,233.731079 347.078613,224.837448 347.748260,215.622559 
	C348.478668,205.572037 347.653503,195.356125 346.823578,185.268463 
	C346.453796,180.773331 344.412872,176.415680 342.739655,171.430176 
	C338.060089,164.835297 332.832916,163.544785 326.227203,168.261597 
	C322.659485,170.809128 319.454956,174.227371 316.962738,177.854767 
	C307.408356,191.761002 301.448669,207.414886 298.196594,223.758224 
	C293.424011,247.742874 289.940277,271.984467 285.939606,296.121918 
	C284.525940,304.651062 283.206665,313.195831 281.707245,322.592133 
	C277.202209,316.846313 273.743591,311.697540 269.550537,307.239594 
	C260.618073,297.742828 257.581726,287.739990 260.677948,274.293121 
	C266.531525,248.871201 269.808960,222.837402 280.048584,198.549225 
	C287.916077,179.887695 297.112640,162.057297 312.309967,148.056824 
	C321.949341,139.176590 332.260376,133.360107 345.650726,140.700409 
	C345.650726,124.293228 345.739685,108.346046 345.577423,92.401428 
	C345.543976,89.117752 344.884094,85.753990 343.970551,82.583427 
	C341.945099,75.553627 336.954407,73.835014 331.758026,78.853943 
	C326.161804,84.259041 320.612061,89.978516 316.308594,96.408508 
	C299.925140,120.887573 284.200684,145.806671 267.936432,170.366928 
	C257.540985,186.064896 249.954834,202.809418 245.405640,221.138885 
	C236.511963,256.973114 226.968964,292.646057 218.037369,328.471161 
	C217.156082,332.006042 218.648117,336.132568 218.944489,340.750214 
	C220.060120,343.692200 221.053650,346.687531 222.311340,349.567474 
	C230.073746,367.342285 238.180923,384.972839 245.608643,402.885559 
	C251.678284,417.523132 250.483658,423.893250 238.399384,433.249847 
	C219.204956,444.263153 198.519669,446.532745 176.956894,443.793976 
	C173.250244,443.323151 169.702927,443.703308 166.596848,447.285034 
	C160.387711,452.500885 154.178558,457.716736 147.326263,463.138428 
	C142.508591,467.334229 137.690933,471.530029 132.218491,475.941803 
	C130.123825,477.813660 128.146362,479.840240 125.914474,481.530975 
	C115.526039,489.400818 117.034790,495.557281 122.044800,504.867676 
	C122.910133,506.475800 123.834587,508.060791 124.846619,509.579926 
	C141.461304,534.519775 164.832382,551.826050 190.262909,567.750427 
	C203.794662,576.644531 218.053864,584.089966 233.540955,588.947815 
	C235.150055,589.452515 237.993912,589.063660 239.009308,587.947327 
	C249.163345,576.784729 259.053986,565.382629 269.609497,553.730774 
	C287.093140,533.943604 304.683868,514.249634 322.012299,494.327454 
	C329.904053,485.254425 336.332886,475.212830 339.644928,462.620239 
	C341.462341,451.748413 343.279785,440.876587 345.834412,429.731750 
M454.173279,562.658020 
	C461.476379,570.661255 468.861115,578.592285 476.036499,586.708374 
	C478.417786,589.401855 480.829254,589.817444 483.948456,588.446838 
	C490.437286,585.595459 497.133820,583.163269 503.432983,579.947571 
	C511.129395,576.018738 518.505615,571.462708 526.704468,566.987732 
	C544.179810,556.771545 560.604309,545.037415 574.370361,530.187500 
	C582.113953,521.834229 588.837463,512.391174 595.058777,502.814270 
	C600.537964,494.379791 599.019165,488.665680 591.502808,482.323029 
	C577.127075,470.192139 562.687134,458.137085 548.356384,445.953461 
	C545.918579,443.880890 543.740479,443.135010 540.325317,443.630737 
	C518.166321,446.847198 496.871002,444.304779 476.810394,432.328125 
	C468.597870,426.974915 465.498718,419.611481 468.136536,410.052795 
	C468.708496,407.980225 469.379089,405.914368 470.229065,403.942261 
	C477.250793,387.649963 484.419800,371.420410 491.334198,355.082947 
	C493.834808,349.174438 495.764038,343.024109 498.327759,336.285400 
	C498.334106,333.997162 498.818451,331.588135 498.275238,329.438812 
	C489.717133,295.577789 480.951996,261.769104 472.401062,227.906311 
	C468.566559,212.721024 464.908905,197.413910 456.414307,184.053986 
	C437.217377,153.862000 417.772186,123.824547 398.080963,93.953003 
	C394.282166,88.190247 389.252258,83.088646 384.143188,78.384903 
	C379.589905,74.192902 374.166168,76.209312 372.214600,82.130806 
	C371.748077,83.546295 371.328308,85.045715 371.278809,86.519691 
	C370.682404,104.279320 370.159668,122.041435 369.610535,140.038010 
	C384.599457,136.445099 388.915283,136.708069 397.200958,142.998459 
	C401.947449,146.601974 406.438599,150.707626 410.383911,155.171265 
	C425.557953,172.338837 435.538177,192.702591 441.467438,214.389999 
	C448.112885,238.697052 451.997894,263.760193 457.001221,288.511078 
	C457.280365,289.891815 457.338867,291.815369 456.598755,292.826691 
	C449.397675,302.667450 442.004181,312.367401 434.128082,322.820862 
	C433.607849,320.882446 433.319305,320.105927 433.195770,319.303986 
	C429.141663,292.982635 425.306519,266.625549 421.000092,240.345657 
	C417.400269,218.377594 411.307495,197.143814 398.933990,178.307358 
	C396.271301,174.253860 392.575867,170.492523 388.549744,167.804398 
	C381.048401,162.795929 373.657257,165.906677 371.939636,174.693985 
	C370.734833,180.857727 370.299957,187.259186 370.289398,193.555771 
	C370.169586,265.039764 370.178406,336.523987 370.226288,408.008118 
	C370.229828,413.325043 370.798065,418.641602 370.850037,424.857086 
	C370.977081,427.685425 371.018433,430.520599 371.244873,433.340973 
	C372.852142,453.357056 376.329071,473.020325 389.747925,488.815277 
	C410.760986,513.549133 432.521057,537.648315 454.173279,562.658020 
M581.584106,197.060059 
	C581.662354,194.737610 581.740601,192.415176 582.409851,189.473785 
	C582.604919,184.390533 582.900330,179.307526 582.913574,174.223785 
	C582.916382,173.160339 581.878113,172.094193 581.056824,170.212616 
	C579.219116,152.550919 573.533569,137.051407 556.725037,128.106888 
	C538.686035,118.507568 520.074890,119.478188 500.763306,125.024635 
	C502.674927,130.487122 504.660706,135.251419 505.993713,140.191833 
	C507.827271,146.987106 510.859100,150.724442 518.906494,151.477707 
	C532.016846,152.704819 537.318665,159.131927 537.510315,171.657104 
	C537.362549,172.296677 537.086792,172.936020 537.085693,173.575867 
	C537.055420,190.824783 537.018066,208.073990 537.120239,225.322281 
	C537.127563,226.560593 538.187927,227.792664 538.959900,229.861771 
	C540.718201,250.419739 549.143860,266.659241 573.414307,272.451202 
	C573.773682,272.536926 574.023315,273.082214 574.442505,273.543152 
	C572.552124,274.206665 570.837341,274.799835 569.128479,275.409637 
	C552.591003,281.310760 542.700073,292.937317 540.133911,310.264343 
	C538.923340,318.438324 538.878540,326.785034 537.813049,335.309998 
	C537.980530,336.522339 538.148071,337.734650 538.593018,339.780548 
	C538.562927,345.771423 538.531250,351.762268 538.503052,357.753143 
	C538.415710,376.292908 533.262817,382.155487 514.979309,384.504883 
	C513.824585,384.653259 512.607666,384.589111 511.526031,384.946136 
	C510.692841,385.221130 509.628418,385.849884 509.347717,386.582275 
	C506.335480,394.441711 503.458710,402.353058 500.564178,410.197784 
	C510.035797,414.454285 524.434387,415.917480 537.410156,413.767365 
	C558.487549,410.274811 573.466797,399.389740 578.482971,377.781158 
	C580.270203,370.082062 580.827332,362.023254 581.222351,354.092621 
	C581.801453,342.466553 581.373474,330.787994 582.026001,319.168427 
	C582.836426,304.739471 588.531006,298.188873 602.354126,294.418732 
	C606.204834,293.368530 610.037720,292.201172 613.946777,291.434296 
	C616.703491,290.893494 617.855164,289.788330 617.789978,286.825073 
	C617.614319,278.838623 617.899719,270.840057 617.620728,262.859650 
	C617.571472,261.449677 615.944763,259.324738 614.594788,258.869598 
	C609.881226,257.280365 604.950562,256.348083 600.137329,255.038132 
	C591.426575,252.667419 585.133240,247.441040 583.389099,238.403870 
	C582.174133,232.108017 582.262878,225.560547 582.268066,218.719284 
	C582.097778,217.497543 581.927490,216.275787 581.502686,214.366470 
	C581.585510,213.892471 581.668396,213.418472 582.335999,212.533646 
	C582.161011,207.657455 581.986023,202.781250 581.584106,197.060059 
M208.078995,388.320618 
	C207.045868,383.253876 202.627197,384.771027 199.580002,384.290070 
	C183.931122,381.820038 178.563049,376.729462 177.703140,360.925964 
	C177.043564,348.804321 178.247299,336.568665 177.362503,324.475891 
	C176.679550,315.141998 175.281921,305.479401 171.982651,296.807281 
	C167.032532,283.795868 155.459824,277.450378 141.533691,273.229675 
	C144.062592,272.430786 145.574890,271.951477 147.088135,271.475250 
	C161.544678,266.925659 171.332657,257.659393 174.832169,242.745392 
	C176.379089,236.152832 177.242447,229.280197 177.417084,222.508942 
	C177.846436,205.861420 177.386185,189.189713 177.880310,172.545456 
	C178.257034,159.855133 183.845505,153.894226 196.294495,151.352615 
	C198.898773,150.820938 201.588547,150.703659 204.187912,150.154099 
	C205.341370,149.910233 207.019119,149.316849 207.350327,148.455734 
	C210.302536,140.780243 213.006805,133.009384 215.867310,125.034683 
	C205.677200,121.718712 195.825851,120.568184 185.767868,121.019791 
	C157.440887,122.291710 139.237259,138.577087 135.991379,166.628738 
	C134.677063,177.987320 135.188324,189.557983 134.886734,201.032623 
	C134.606918,211.678421 134.650482,222.343048 134.004623,232.966125 
	C133.281235,244.864609 127.112877,251.969284 115.685738,255.026566 
	C111.188347,256.229828 106.566978,257.029236 102.168594,258.507904 
	C100.790817,258.971100 99.071404,261.019989 99.020111,262.399231 
	C98.716995,270.550629 98.982697,278.721588 98.787262,286.879456 
	C98.715164,289.889069 100.043938,290.920319 102.690575,291.483429 
	C107.081444,292.417603 111.422295,293.594696 115.768288,294.730377 
	C127.180450,297.712585 133.221313,305.345581 134.070023,316.880035 
	C134.704453,325.502289 134.510376,334.182251 134.964096,342.821899 
	C135.530212,353.601562 135.534439,364.507355 137.298874,375.106079 
	C140.390350,393.676117 151.669968,405.857758 169.690826,411.362793 
	C175.058411,413.002411 180.717285,414.042603 186.313065,414.503693 
	C196.447159,415.338745 206.419479,414.103302 216.446487,410.472015 
	C213.645645,403.037140 211.011536,396.044891 208.078995,388.320618 
z"/>
<path fill="#E1403E" opacity="1.000000" stroke="none" 
	d="
M713.595337,29.463074 
	C713.891113,67.797386 713.997986,106.450371 713.999207,145.103348 
	C714.004883,317.383362 713.980713,489.663391 713.964111,661.943420 
	C713.963867,664.609436 713.923340,667.275513 713.864746,670.393433 
	C713.553162,669.078674 713.038086,667.312073 713.037781,665.545349 
	C713.000549,455.107788 713.000610,244.670258 713.014954,34.232712 
	C713.015015,32.749046 713.238586,31.265394 713.595337,29.463074 
z"/>
<path fill="#E84045" opacity="1.000000" stroke="none" 
	d="
M549.626038,697.670776 
	C543.627502,697.942261 537.307983,697.961182 530.527710,697.939941 
	C536.479675,697.739197 542.892395,697.578735 549.626038,697.670776 
z"/>
<path fill="#E84045" opacity="1.000000" stroke="none" 
	d="
M219.634583,697.672058 
	C216.286224,697.946411 212.624893,697.970459 208.509888,697.955505 
	C211.811340,697.751526 215.566483,697.586609 219.634583,697.672058 
z"/>
<path fill="#E84045" opacity="1.000000" stroke="none" 
	d="
M428.642761,697.675659 
	C425.947906,697.946350 422.948273,697.970215 419.501709,697.956055 
	C422.149200,697.755066 425.243591,697.591980 428.642761,697.675659 
z"/>
<path fill="#E84045" opacity="1.000000" stroke="none" 
	d="
M195.646179,697.667236 
	C193.601166,697.931946 191.265289,697.958618 188.493683,697.949219 
	C190.490402,697.751892 192.922836,697.590515 195.646179,697.667236 
z"/>
<path fill="#E84045" opacity="1.000000" stroke="none" 
	d="
M443.672211,697.675781 
	C442.257446,697.932434 440.576447,697.958313 438.477112,697.947388 
	C439.841156,697.755432 441.623566,697.600220 443.672211,697.675781 
z"/>
<path fill="#E84045" opacity="1.000000" stroke="none" 
	d="
M505.676575,697.678711 
	C504.257568,697.941162 502.572418,697.970520 500.467590,697.964111 
	C501.835449,697.767395 503.622925,697.606506 505.676575,697.678711 
z"/>
<path fill="#E84045" opacity="1.000000" stroke="none" 
	d="
M57.716171,697.686890 
	C56.905483,697.930054 55.869286,697.954346 54.446129,697.941772 
	C55.203003,697.759277 56.346832,697.613647 57.716171,697.686890 
z"/>
<path fill="#E84045" opacity="1.000000" stroke="none" 
	d="
M615.709717,697.682495 
	C614.901855,697.925354 613.867920,697.951782 612.447815,697.940735 
	C613.202332,697.757568 614.342957,697.611877 615.709717,697.682495 
z"/>
<path fill="#E84045" opacity="1.000000" stroke="none" 
	d="
M184.867035,697.786865 
	C184.959335,697.910034 184.499847,697.955261 184.270294,697.932373 
	C184.223602,697.576477 184.468277,697.494568 184.867035,697.786865 
z"/>
<path fill="#E84045" opacity="1.000000" stroke="none" 
	d="
M679.853516,697.751038 
	C679.943359,697.867188 679.499878,697.913818 679.278259,697.890625 
	C679.234436,697.554260 679.470154,697.476746 679.853516,697.751038 
z"/>
<path fill="#FDFDFD" opacity="1.000000" stroke="none" 
	d="
M477.132294,432.923798 
	C496.871002,444.304779 518.166321,446.847198 540.325317,443.630737 
	C543.740479,443.135010 545.918579,443.880890 548.356384,445.953461 
	C562.687134,458.137085 577.127075,470.192139 591.502808,482.323029 
	C599.019165,488.665680 600.537964,494.379791 595.058777,502.814270 
	C588.837463,512.391174 582.113953,521.834229 574.370361,530.187500 
	C560.604309,545.037415 544.179810,556.771545 526.373840,566.722839 
	C518.391907,560.221069 510.740631,553.984131 502.904297,547.476929 
	C501.988617,546.525391 501.304321,545.784973 500.520630,545.171448 
	C469.352783,520.771851 438.259918,496.275208 406.961304,472.044342 
	C393.316528,461.480743 381.456421,449.700073 375.419983,433.047302 
	C374.282196,429.908539 372.557587,426.982513 371.103790,423.958313 
	C370.798065,418.641602 370.229828,413.325043 370.226288,408.008118 
	C370.178406,336.523987 370.169586,265.039764 370.289398,193.555771 
	C370.299957,187.259186 370.734833,180.857727 371.939636,174.693985 
	C373.657257,165.906677 381.048401,162.795929 388.549744,167.804398 
	C392.575867,170.492523 396.271301,174.253860 398.933990,178.307358 
	C411.307495,197.143814 417.400269,218.377594 421.000092,240.345657 
	C425.306519,266.625549 429.141663,292.982635 433.195770,319.303986 
	C433.319305,320.105927 433.607849,320.882446 434.128082,322.820862 
	C442.004181,312.367401 449.397675,302.667450 456.598755,292.826691 
	C457.338867,291.815369 457.280365,289.891815 457.001221,288.511078 
	C451.997894,263.760193 448.112885,238.697052 441.467438,214.389999 
	C435.538177,192.702591 425.557953,172.338837 410.383911,155.171265 
	C406.438599,150.707626 401.947449,146.601974 397.200958,142.998459 
	C388.915283,136.708069 384.599457,136.445099 369.610535,140.038010 
	C370.159668,122.041435 370.682404,104.279320 371.278809,86.519691 
	C371.328308,85.045715 371.748077,83.546295 372.214600,82.130806 
	C374.166168,76.209312 379.589905,74.192902 384.143188,78.384903 
	C389.252258,83.088646 394.282166,88.190247 398.080963,93.953003 
	C417.772186,123.824547 437.217377,153.862000 456.414307,184.053986 
	C464.908905,197.413910 468.566559,212.721024 472.401062,227.906311 
	C480.951996,261.769104 489.717133,295.577789 498.275238,329.438812 
	C498.818451,331.588135 498.334106,333.997162 497.805115,336.697968 
	C493.178528,344.281006 488.986969,351.403015 484.988739,358.631897 
	C476.319550,374.306091 467.657349,389.985779 459.202118,405.775574 
	C457.054413,409.786316 456.090149,414.315918 458.444946,418.689178 
	C462.501068,426.222168 468.735107,431.025177 477.132294,432.923798 
z"/>
<path fill="#FDFDFD" opacity="1.000000" stroke="none" 
	d="
M167.249191,447.098267 
	C169.702927,443.703308 173.250244,443.323151 176.956894,443.793976 
	C198.519669,446.532745 219.204956,444.263153 239.108276,433.180908 
	C243.943939,430.693207 248.290359,428.577698 252.146393,425.785065 
	C258.025299,421.527435 260.020233,414.945465 257.742096,408.122620 
	C256.589752,404.671448 255.087616,401.277710 253.300919,398.107513 
	C243.013428,379.854004 232.612335,361.664368 222.179764,343.493256 
	C221.415161,342.161499 220.098557,341.146667 219.038589,339.984497 
	C218.648117,336.132568 217.156082,332.006042 218.037369,328.471161 
	C226.968964,292.646057 236.511963,256.973114 245.405640,221.138885 
	C249.954834,202.809418 257.540985,186.064896 267.936432,170.366928 
	C284.200684,145.806671 299.925140,120.887573 316.308594,96.408508 
	C320.612061,89.978516 326.161804,84.259041 331.758026,78.853943 
	C336.954407,73.835014 341.945099,75.553627 343.970551,82.583427 
	C344.884094,85.753990 345.543976,89.117752 345.577423,92.401428 
	C345.739685,108.346046 345.650726,124.293228 345.650726,140.700409 
	C332.260376,133.360107 321.949341,139.176590 312.309967,148.056824 
	C297.112640,162.057297 287.916077,179.887695 280.048584,198.549225 
	C269.808960,222.837402 266.531525,248.871201 260.677948,274.293121 
	C257.581726,287.739990 260.618073,297.742828 269.550537,307.239594 
	C273.743591,311.697540 277.202209,316.846313 281.707245,322.592133 
	C283.206665,313.195831 284.525940,304.651062 285.939606,296.121918 
	C289.940277,271.984467 293.424011,247.742874 298.196594,223.758224 
	C301.448669,207.414886 307.408356,191.761002 316.962738,177.854767 
	C319.454956,174.227371 322.659485,170.809128 326.227203,168.261597 
	C332.832916,163.544785 338.060089,164.835297 342.978760,172.120804 
	C343.974731,181.565460 345.357025,190.317383 345.386261,199.073837 
	C345.567688,253.380600 345.498016,307.688477 345.397034,361.995758 
	C345.358032,382.978668 345.019409,403.961029 344.479797,425.040375 
	C339.979004,437.089447 333.968506,448.006531 325.583374,457.938599 
	C306.220703,473.399597 287.148804,488.684509 268.053436,503.940063 
	C256.371552,513.272888 244.653671,522.560608 232.675827,532.003174 
	C231.661728,532.460999 230.923782,532.784241 229.879807,532.944885 
	C224.945740,528.307556 219.150803,524.523071 215.990402,519.180237 
	C212.195663,512.764832 207.503189,507.454681 202.678436,501.972321 
	C197.573792,496.171875 193.025009,489.811279 188.809082,483.321381 
	C185.225357,477.804626 182.651062,471.642700 179.282700,465.972626 
	C175.473801,459.561005 171.277206,453.379730 167.249191,447.098267 
z"/>
<path fill="#F7842B" opacity="1.000000" stroke="none" 
	d="
M208.228210,388.686646 
	C211.011536,396.044891 213.645645,403.037140 216.446487,410.472015 
	C206.419479,414.103302 196.447159,415.338745 186.313065,414.503693 
	C180.717285,414.042603 175.058411,413.002411 169.690826,411.362793 
	C151.669968,405.857758 140.390350,393.676117 137.298874,375.106079 
	C135.534439,364.507355 135.530212,353.601562 134.964096,342.821899 
	C134.510376,334.182251 134.704453,325.502289 134.070023,316.880035 
	C133.221313,305.345581 127.180450,297.712585 115.768288,294.730377 
	C111.422295,293.594696 107.081444,292.417603 102.690575,291.483429 
	C100.043938,290.920319 98.715164,289.889069 98.787262,286.879456 
	C98.982697,278.721588 98.716995,270.550629 99.020111,262.399231 
	C99.071404,261.019989 100.790817,258.971100 102.168594,258.507904 
	C106.566978,257.029236 111.188347,256.229828 115.685738,255.026566 
	C127.112877,251.969284 133.281235,244.864609 134.004623,232.966125 
	C134.650482,222.343048 134.606918,211.678421 134.886734,201.032623 
	C135.188324,189.557983 134.677063,177.987320 135.991379,166.628738 
	C139.237259,138.577087 157.440887,122.291710 185.767868,121.019791 
	C195.825851,120.568184 205.677200,121.718712 215.867310,125.034683 
	C213.006805,133.009384 210.302536,140.780243 207.350327,148.455734 
	C207.019119,149.316849 205.341370,149.910233 204.187912,150.154099 
	C201.588547,150.703659 198.898773,150.820938 196.294495,151.352615 
	C183.845505,153.894226 178.257034,159.855133 177.880310,172.545456 
	C177.386185,189.189713 177.846436,205.861420 177.417084,222.508942 
	C177.242447,229.280197 176.379089,236.152832 174.832169,242.745392 
	C171.332657,257.659393 161.544678,266.925659 147.088135,271.475250 
	C145.574890,271.951477 144.062592,272.430786 141.533691,273.229675 
	C155.459824,277.450378 167.032532,283.795868 171.982651,296.807281 
	C175.281921,305.479401 176.679550,315.141998 177.362503,324.475891 
	C178.247299,336.568665 177.043564,348.804321 177.703140,360.925964 
	C178.563049,376.729462 183.931122,381.820038 199.580002,384.290070 
	C202.627197,384.771027 207.045868,383.253876 208.228210,388.686646 
z"/>
<path fill="#F7852C" opacity="1.000000" stroke="none" 
	d="
M538.009521,170.997269 
	C537.318665,159.131927 532.016846,152.704819 518.906494,151.477707 
	C510.859100,150.724442 507.827271,146.987106 505.993713,140.191833 
	C504.660706,135.251419 502.674927,130.487122 500.763306,125.024635 
	C520.074890,119.478188 538.686035,118.507568 556.725037,128.106888 
	C573.533569,137.051407 579.219116,152.550919 581.147461,171.083221 
	C581.431641,178.000137 581.625244,184.046432 581.818787,190.092728 
	C581.740601,192.415176 581.662354,194.737610 581.602905,197.896759 
	C581.664795,203.470459 581.708008,208.207458 581.751221,212.944473 
	C581.668396,213.418472 581.585510,213.892471 581.516357,215.038177 
	C581.609680,216.848419 581.689392,217.986954 581.769165,219.125488 
	C582.262878,225.560547 582.174133,232.108017 583.389099,238.403870 
	C585.133240,247.441040 591.426575,252.667419 600.137329,255.038132 
	C604.950562,256.348083 609.881226,257.280365 614.594788,258.869598 
	C615.944763,259.324738 617.571472,261.449677 617.620728,262.859650 
	C617.899719,270.840057 617.614319,278.838623 617.789978,286.825073 
	C617.855164,289.788330 616.703491,290.893494 613.946777,291.434296 
	C610.037720,292.201172 606.204834,293.368530 602.354126,294.418732 
	C588.531006,298.188873 582.836426,304.739471 582.026001,319.168427 
	C581.373474,330.787994 581.801453,342.466553 581.222351,354.092621 
	C580.827332,362.023254 580.270203,370.082062 578.482971,377.781158 
	C573.466797,399.389740 558.487549,410.274811 537.410156,413.767365 
	C524.434387,415.917480 510.035797,414.454285 500.564178,410.197784 
	C503.458710,402.353058 506.335480,394.441711 509.347717,386.582275 
	C509.628418,385.849884 510.692841,385.221130 511.526031,384.946136 
	C512.607666,384.589111 513.824585,384.653259 514.979309,384.504883 
	C533.262817,382.155487 538.415710,376.292908 538.503052,357.753143 
	C538.531250,351.762268 538.562927,345.771423 538.566650,338.983643 
	C538.462036,337.142303 538.383789,336.097900 538.305542,335.053467 
	C538.878540,326.785034 538.923340,318.438324 540.133911,310.264343 
	C542.700073,292.937317 552.591003,281.310760 569.128479,275.409637 
	C570.837341,274.799835 572.552124,274.206665 574.442505,273.543152 
	C574.023315,273.082214 573.773682,272.536926 573.414307,272.451202 
	C549.143860,266.659241 540.718201,250.419739 538.897705,228.975647 
	C538.814392,212.512741 538.837219,196.935669 538.738098,181.359360 
	C538.716125,177.903915 538.263733,174.451233 538.009521,170.997269 
z"/>
<path fill="#C2C7CE" opacity="1.000000" stroke="none" 
	d="
M370.976929,424.407715 
	C372.557587,426.982513 374.282196,429.908539 375.419983,433.047302 
	C381.456421,449.700073 393.316528,461.480743 406.961304,472.044342 
	C438.259918,496.275208 469.352783,520.771851 500.520630,545.171448 
	C501.304321,545.784973 501.988617,546.525391 502.832458,547.875122 
	C500.668213,553.794495 498.600677,559.151245 496.029480,564.254211 
	C494.631287,567.029175 492.022491,567.663635 489.321564,565.569580 
	C483.218964,560.838135 476.467987,560.421021 469.605560,563.164734 
	C465.881134,564.653809 462.889099,564.663086 459.484131,562.413940 
	C458.142273,561.527527 455.833313,562.105286 453.964722,562.016357 
	C432.521057,537.648315 410.760986,513.549133 389.747925,488.815277 
	C376.329071,473.020325 372.852142,453.357056 371.244873,433.340973 
	C371.018433,430.520599 370.977081,427.685425 370.976929,424.407715 
z"/>
<path fill="#C3C8CE" opacity="1.000000" stroke="none" 
	d="
M232.951981,531.868591 
	C244.653671,522.560608 256.371552,513.272888 268.053436,503.940063 
	C287.148804,488.684509 306.220703,473.399597 325.771332,458.281799 
	C327.734467,459.298004 329.141937,460.410004 330.742493,460.964905 
	C333.469696,461.910522 336.318207,462.506134 339.115784,463.248779 
	C336.332886,475.212830 329.904053,485.254425 322.012299,494.327454 
	C304.683868,514.249634 287.093140,533.943604 269.140930,553.589905 
	C267.214661,553.257751 265.464081,552.451294 264.350006,552.981689 
	C259.533051,555.275085 254.813339,557.810303 250.227631,560.541931 
	C245.213181,563.528870 242.019882,562.808777 240.308456,557.150146 
	C238.705673,551.850647 234.119720,547.141235 236.768951,540.774292 
	C237.165085,539.822266 235.783615,538.113770 235.189514,536.770691 
	C234.462952,535.128113 233.699493,533.501892 232.951981,531.868591 
z"/>
<path fill="#EFEFF0" opacity="1.000000" stroke="none" 
	d="
M132.873260,475.725830 
	C137.690933,471.530029 142.508591,467.334229 147.860168,463.300385 
	C150.571045,466.722778 153.000183,469.846069 154.865524,473.275940 
	C157.625992,478.351776 159.184311,484.272766 162.669540,488.726654 
	C172.518036,501.312561 183.080978,513.339783 193.379395,525.572876 
	C194.642838,527.073669 196.348312,528.301025 197.269699,529.974060 
	C201.109436,536.946289 206.285370,542.614441 212.729797,547.239990 
	C206.720047,552.020569 200.902649,556.536011 194.710785,561.026306 
	C192.485001,559.514465 190.333664,558.278503 188.840591,556.492310 
	C184.923416,551.806335 181.617325,546.580566 177.482910,542.110840 
	C168.183701,532.057434 158.219315,522.608093 149.125946,512.379211 
	C142.578079,505.013641 135.667664,497.560486 134.470978,486.952393 
	C134.047455,483.197906 133.411972,479.467316 132.873260,475.725830 
z"/>
<path fill="#F6F7F7" opacity="1.000000" stroke="none" 
	d="
M212.922150,546.974854 
	C206.285370,542.614441 201.109436,536.946289 197.269699,529.974060 
	C196.348312,528.301025 194.642838,527.073669 193.379395,525.572876 
	C183.080978,513.339783 172.518036,501.312561 162.669540,488.726654 
	C159.184311,484.272766 157.625992,478.351776 154.865524,473.275940 
	C153.000183,469.846069 150.571045,466.722778 148.181763,463.197449 
	C154.178558,457.716736 160.387711,452.500885 166.923019,447.191650 
	C171.277206,453.379730 175.473801,459.561005 179.282700,465.972626 
	C182.651062,471.642700 185.225357,477.804626 188.809082,483.321381 
	C193.025009,489.811279 197.573792,496.171875 202.678436,501.972321 
	C207.503189,507.454681 212.195663,512.764832 215.990402,519.180237 
	C219.150803,524.523071 224.945740,528.307556 229.686340,533.223633 
	C224.173294,538.101562 218.547714,542.538208 212.922150,546.974854 
z"/>
<path fill="#BFC4CB" opacity="1.000000" stroke="none" 
	d="
M212.729782,547.239990 
	C218.547714,542.538208 224.173294,538.101562 229.992371,533.386230 
	C230.923782,532.784241 231.661728,532.460999 232.675842,532.003174 
	C233.699493,533.501892 234.462952,535.128113 235.189514,536.770691 
	C235.783615,538.113770 237.165085,539.822266 236.768951,540.774292 
	C234.119720,547.141235 238.705673,551.850647 240.308456,557.150146 
	C242.019882,562.808777 245.213181,563.528870 250.227631,560.541931 
	C254.813339,557.810303 259.533051,555.275085 264.350006,552.981689 
	C265.464081,552.451294 267.214661,553.257751 268.845612,553.748535 
	C259.053986,565.382629 249.163345,576.784729 239.009308,587.947327 
	C237.993912,589.063660 235.150055,589.452515 233.540955,588.947815 
	C218.053864,584.089966 203.794662,576.644531 190.241333,567.142212 
	C191.841583,564.706482 193.463409,562.878967 195.085251,561.051453 
	C200.902649,556.536011 206.720047,552.020569 212.729782,547.239990 
z"/>
<path fill="#E8E8E9" opacity="1.000000" stroke="none" 
	d="
M194.710785,561.026306 
	C193.463409,562.878967 191.841583,564.706482 190.085266,566.843994 
	C164.832382,551.826050 141.461304,534.519775 124.846619,509.579926 
	C123.834587,508.060791 122.910133,506.475800 122.044800,504.867676 
	C117.034790,495.557281 115.526039,489.400818 125.914474,481.530975 
	C128.146362,479.840240 130.123825,477.813660 132.545868,475.833801 
	C133.411972,479.467316 134.047455,483.197906 134.470978,486.952393 
	C135.667664,497.560486 142.578079,505.013641 149.125946,512.379211 
	C158.219315,522.608093 168.183701,532.057434 177.482910,542.110840 
	C181.617325,546.580566 184.923416,551.806335 188.840591,556.492310 
	C190.333664,558.278503 192.485001,559.514465 194.710785,561.026306 
z"/>
<path fill="#BDC2C9" opacity="1.000000" stroke="none" 
	d="
M454.069000,562.337158 
	C455.833313,562.105286 458.142273,561.527527 459.484131,562.413940 
	C462.889099,564.663086 465.881134,564.653809 469.605560,563.164734 
	C476.467987,560.421021 483.218964,560.838135 489.321564,565.569580 
	C492.022491,567.663635 494.631287,567.029175 496.029480,564.254211 
	C498.600677,559.151245 500.668213,553.794495 503.017517,548.145386 
	C510.740631,553.984131 518.391907,560.221069 526.031738,566.817993 
	C518.505615,571.462708 511.129395,576.018738 503.432983,579.947571 
	C497.133820,583.163269 490.437286,585.595459 483.948456,588.446838 
	C480.829254,589.817444 478.417786,589.401855 476.036499,586.708374 
	C468.861115,578.592285 461.476379,570.661255 454.069000,562.337158 
z"/>
<path fill="#CDD1D7" opacity="1.000000" stroke="none" 
	d="
M476.971344,432.625977 
	C468.735107,431.025177 462.501068,426.222168 458.444946,418.689178 
	C456.090149,414.315918 457.054413,409.786316 459.202118,405.775574 
	C467.657349,389.985779 476.319550,374.306091 484.988739,358.631897 
	C488.986969,351.403015 493.178528,344.281006 497.618225,337.047302 
	C495.764038,343.024109 493.834808,349.174438 491.334198,355.082947 
	C484.419800,371.420410 477.250793,387.649963 470.229065,403.942261 
	C469.379089,405.914368 468.708496,407.980225 468.136536,410.052795 
	C465.498718,419.611481 468.597870,426.974915 476.971344,432.625977 
z"/>
<path fill="#C9CDD5" opacity="1.000000" stroke="none" 
	d="
M218.991547,340.367371 
	C220.098557,341.146667 221.415161,342.161499 222.179764,343.493256 
	C232.612335,361.664368 243.013428,379.854004 253.300919,398.107513 
	C255.087616,401.277710 256.589752,404.671448 257.742096,408.122620 
	C260.020233,414.945465 258.025299,421.527435 252.146393,425.785065 
	C248.290359,428.577698 243.943939,430.693207 239.446320,433.077576 
	C250.483658,423.893250 251.678284,417.523132 245.608643,402.885559 
	C238.180923,384.972839 230.073746,367.342285 222.311340,349.567474 
	C221.053650,346.687531 220.060120,343.692200 218.991547,340.367371 
z"/>
<path fill="#242C34" opacity="1.000000" stroke="none" 
	d="
M344.817322,424.943634 
	C345.019409,403.961029 345.358032,382.978668 345.397034,361.995758 
	C345.498016,307.688477 345.567688,253.380600 345.386261,199.073837 
	C345.357025,190.317383 343.974731,181.565460 343.174133,172.403534 
	C344.412872,176.415680 346.453796,180.773331 346.823578,185.268463 
	C347.653503,195.356125 348.478668,205.572037 347.748260,215.622559 
	C347.078613,224.837448 347.980927,233.731079 348.689056,242.824860 
	C349.362732,251.476181 347.378998,260.303558 347.059753,269.071594 
	C346.726471,278.224396 346.851166,287.401825 347.060760,296.561951 
	C347.130646,299.616821 348.204254,302.636108 348.585480,305.700714 
	C348.848999,307.819214 348.742828,309.987488 348.748260,312.133667 
	C348.767487,319.737579 348.761047,327.341522 348.770142,334.945465 
	C348.773315,337.602936 348.982758,340.275879 348.767120,342.914734 
	C348.283295,348.835754 347.128357,354.735168 347.068756,360.651672 
	C346.855652,381.812195 347.014130,402.976288 346.935333,424.138672 
	C346.928406,426.004364 346.218079,427.867462 345.405640,429.447571 
	C344.923676,427.756775 344.870483,426.350220 344.817322,424.943634 
z"/>
<path fill="#C9CDD4" opacity="1.000000" stroke="none" 
	d="
M344.479797,425.040375 
	C344.870483,426.350220 344.923676,427.756775 345.037018,429.584045 
	C343.279785,440.876587 341.462341,451.748413 339.380371,462.934509 
	C336.318207,462.506134 333.469696,461.910522 330.742493,460.964905 
	C329.141937,460.410004 327.734467,459.298004 326.052216,458.093384 
	C333.968506,448.006531 339.979004,437.089447 344.479797,425.040375 
z"/>
<path fill="#37312C" opacity="1.000000" stroke="none" 
	d="
M537.759888,171.327179 
	C538.263733,174.451233 538.716125,177.903915 538.738098,181.359360 
	C538.837219,196.935669 538.814392,212.512741 538.797058,228.558578 
	C538.187927,227.792664 537.127563,226.560593 537.120239,225.322281 
	C537.018066,208.073990 537.055420,190.824783 537.085693,173.575867 
	C537.086792,172.936020 537.362549,172.296677 537.759888,171.327179 
z"/>
<path fill="#0D1C2E" opacity="1.000000" stroke="none" 
	d="
M582.114319,189.783264 
	C581.625244,184.046432 581.431641,178.000137 581.278809,171.491562 
	C581.878113,172.094193 582.916382,173.160339 582.913574,174.223785 
	C582.900330,179.307526 582.604919,184.390533 582.114319,189.783264 
z"/>
<path fill="#0D1C2E" opacity="1.000000" stroke="none" 
	d="
M582.043579,212.739059 
	C581.708008,208.207458 581.664795,203.470459 581.716370,198.319244 
	C581.986023,202.781250 582.161011,207.657455 582.043579,212.739059 
z"/>
<path fill="#0D1C2E" opacity="1.000000" stroke="none" 
	d="
M582.018555,218.922394 
	C581.689392,217.986954 581.609680,216.848419 581.643555,215.381958 
	C581.927490,216.275787 582.097778,217.497543 582.018555,218.922394 
z"/>
<path fill="#0B1C2A" opacity="1.000000" stroke="none" 
	d="
M538.059326,335.181732 
	C538.383789,336.097900 538.462036,337.142303 538.427917,338.566864 
	C538.148071,337.734650 537.980530,336.522339 538.059326,335.181732 
z"/>
</svg>